<svg xmlns="http://www.w3.org/2000/svg" width="69" height="24" viewBox="0 0 69 24" fill="none">
  <g clip-path="url(#selzy_full_logo_svg__a)" fill="#3B1B67">
    <path d="M3.4 12.956c.192.443.325.889.565 1.268.492.79 1.273 1.17 2.144 1.372 1.404.325 2.807.337 4.183-.115.31-.103.599-.26.856-.46.915-.72.876-1.938-.077-2.612-.643-.455-1.39-.659-2.134-.865-1.49-.407-2.987-.78-4.46-1.235A7.87 7.87 0 0 1 1.829 8.86c-2.365-1.922-2.353-6.087.853-7.816C3.838.422 5.078.13 6.368.04c1.984-.14 3.922.077 5.707 1.023 1.83.972 2.829 2.501 2.861 4.62 0 .285-.047.408-.368.396-1.033-.023-2.066-.008-3.124-.008-.02-.207-.028-.395-.058-.569-.163-1.006-.774-1.656-1.69-1.995a6.576 6.576 0 0 0-4.478-.08c-1.014.339-1.502 1.1-1.383 2.034a1.444 1.444 0 0 0 .76 1.127c.62.336 1.27.613 1.94.828 1.559.477 3.15.846 4.706 1.35.781.267 1.527.628 2.222 1.075 2.724 1.701 2.677 6.056-.153 7.767a8.64 8.64 0 0 1-3.469 1.153c-2.08.264-4.131.156-6.114-.574C2.213 17.63.982 16.711.328 15.172a6.996 6.996 0 0 1-.324-1.097.297.297 0 0 1 .13-.255c1.067-.3 2.14-.583 3.211-.869.033-.005.067.005.055.005zM29.035 14.5l1.753 2.358a5.701 5.701 0 0 1-1.699 1.185c-2.724 1.2-5.445 1.261-8.033-.312-2.072-1.26-3.007-3.249-3.046-5.66-.06-3.292 1.954-5.952 5.082-6.775 3.457-.91 6.962.886 8.124 4.163a6.31 6.31 0 0 1 .261 3.2c-.046.278-.158.353-.426.353-3.003-.008-6.005-.008-9.007 0h-.449c.092.546.317 1.061.654 1.5.654.86 1.541 1.293 2.592 1.405a5.052 5.052 0 0 0 3.966-1.228c.064-.062.132-.112.228-.188zm-1.009-3.926c-.261-1.58-1.668-2.66-3.28-2.591-1.888.08-2.93 1.552-3.07 2.59h6.35zm26.4-5.214h1.066c.773 0 1.545.01 2.318 0a.415.415 0 0 1 .473.324c1.087 2.916 2.182 5.83 3.283 8.743.037.1.078.198.14.359a2.8 2.8 0 0 0 .131-.263 3448.86 3448.86 0 0 0 3.303-8.805c.1-.27.231-.364.523-.359.979.018 1.96 0 2.937.008.116 0 .233.01.4.017-.06.172-.098.305-.15.432-1.557 3.788-3.1 7.581-4.679 11.36-.9 2.158-2.197 4.025-4.161 5.353a9.464 9.464 0 0 1-3.565 1.472c-.087.017-.261-.03-.28-.09-.383-.997-.747-2-1.124-3.027.57-.203 1.115-.382 1.649-.59a8.571 8.571 0 0 0 2.832-1.711.38.38 0 0 0 .111-.503 4472.7 4472.7 0 0 1-5.056-12.306c-.044-.115-.082-.227-.151-.414zm-8.372 10.12c.184.01.3.018.413.018h5.843c.435 0 .436 0 .436.453 0 .766-.01 1.532 0 2.297.007.28-.095.352-.358.352-3.58-.008-7.159-.008-10.738 0-.252 0-.349-.069-.342-.335.017-.579-.01-1.16.016-1.739a.916.916 0 0 1 .204-.526 1860.29 1860.29 0 0 1 6.156-7.098c.103-.12.205-.244.375-.447h-6.375c-.28 0-.383-.07-.376-.366.017-.799.013-1.598 0-2.397 0-.249.067-.347.332-.346 3.59.007 7.179.007 10.769 0 .261 0 .341.086.335.34-.015.581.013 1.162-.015 1.741a.967.967 0 0 1-.212.55 1667.395 1667.395 0 0 1-6.215 7.176c-.068.098-.137.19-.248.327zM34.636 9.422v-8.7c0-.431 0-.432.425-.432h2.578c.447 0 .448 0 .448.44v15.76c0 .59-.01 1.184 0 1.772 0 .263-.072.343-.332.34a77.624 77.624 0 0 0-2.708 0c-.326.007-.426-.077-.424-.418.018-2.919.013-5.841.013-8.762zM31.566.279H18.004V3.38h13.562V.28z"/>
  </g>
  <defs>
    <clipPath id="selzy_full_logo_svg__a">
      <path fill="#fff" d="M0 0h69v24H0z"/>
    </clipPath>
  </defs>
</svg>